<svg id="Layer_1" enable-background="new 0 0 464.002 464.002" height="512" viewBox="0 0 464.002 464.002" width="512" xmlns="http://www.w3.org/2000/svg"><path d="m437.516 176.562c-4.46-7.52-12.55-11.44-20.63-11l-.02-.4c-9.568-20.643-33.813-26.13-51.929-12.972-1.862 1.352-4.439.871-5.72-1.041-8.312-12.409-22.992-19.194-37.722-17.147-13.433 1.849-25.412 10.98-30.737 24.322-.775 1.942-2.92 2.989-4.905 2.331-13.092-4.342-26.444-3.41-38.548 4.203-8.577-4.736-19.219-5.256-28.51-.675l-87.17 42.98c-34.1 17.91-58.59 49.92-66.95 87.52-.663 2.98-20.45 91.512-20.45 94.32h-13.22c-10.22 0-18.51 8.29-18.51 18.51v37.98c0 10.22 8.29 18.51 18.51 18.51h194.98c10.22 0 18.51-8.29 18.51-18.51v-37.98c0-10.22-8.29-18.51-18.51-18.51h-18.11c0-.643-1.471 2.982 19.2-44.94 4.02-9.32 11.89-16.44 21.57-19.51l68.42-21.69c7.58-2.41 14.56-6.41 20.47-11.74l95.69-86.31c8.013-7.226 9.753-19.07 4.291-28.251z" fill="#ffebd2"/><path d="m416.866 165.162.02.4c-4.17.22-8.34 1.61-12 4.26l-90.7 65.8c-5.03 3.65-10.88 5.99-17.04 6.82l-104.98 14.14 57.61-39.42c19.062-13.045 17.274-41.419-2.47-52.305 12.103-7.613 25.456-8.544 38.548-4.203 1.985.658 4.129-.389 4.905-2.331 5.326-13.342 17.304-22.472 30.737-24.322 14.73-2.047 29.41 4.738 37.722 17.147 1.281 1.912 3.857 2.394 5.72 1.041 18.107-13.151 42.354-7.686 51.928 12.973z" fill="#c79a83"/><path d="m244.496 407.512v37.98c0 10.22-8.29 18.51-18.51 18.51h-194.98c-10.22 0-18.51-8.29-18.51-18.51v-37.98c0-10.22 8.29-18.51 18.51-18.51h194.98c10.22 0 18.51 8.29 18.51 18.51z" fill="#ff6d7a"/><path d="m346.636 66.222c-8.55-21.58-1.13-48.69 31.9-58.26 14.11-4.08 31.26 4.9 47.66-5.53 9.29-5.91 21.67-.51 23.72 10.4 15.028 80.001-80.868 110.079-103.28 53.39z" fill="#befa91"/><path d="m289.436 94.572c-16.299 40.45-85.694 18.938-74.8-38.38 1.48-7.81 10.46-11.68 17.19-7.45 11.88 7.48 24.31 1.04 34.53 3.96 24 6.88 29.35 26.39 23.08 41.87z" fill="#befa91"/><path d="m449.933 12.92c2.43 12.87-32.702 6.744-61.397 15.041-20.444 5.921-31.077 18.564-34.182 32.459-1.139 5.095-8.4 5.246-9.706.191-5.389-20.853 4.561-44.153 33.888-52.65 14.11-4.08 31.26 4.9 47.66-5.53 9.199-5.852 21.632-.656 23.737 10.489z" fill="#daffbf"/><path d="m276.466 56.9c5.997 3.455 2.262 12.913-5.11 10.801-10.22-2.92-22.65 3.52-34.53-3.96-4.445-2.793-9.185-2.696-12.756.456-4.167 3.678-10.707.139-9.884-5.357.131-.874.281-1.757.45-2.648 1.48-7.81 10.46-11.68 17.19-7.45 11.88 7.48 24.31 1.04 34.53 3.96 3.837 1.099 7.198 2.521 10.11 4.198z" fill="#daffbf"/><path d="m383.375 51.148c-1.007-4.302-5.31-6.974-9.612-5.966-29.264 6.85-54.199 28.39-63.929 58.984-9.554-13.928-23.971-23.297-39.506-26.952-4.305-1.012-8.608 1.655-9.619 5.955-1.012 4.301 1.654 8.608 5.955 9.62 4.479 1.054 11.254 3.344 18.109 8.283 11.417 8.189 18.933 25.008 20.466 39.803.448 4.345 4.349 7.573 8.915 7.114 4.102-.413 7.342-3.771 7.342-7.967-.001-3.24.002-2.962-.002-3.18-.16-8.02 1.092-32.676 16.155-51.229 10.359-12.769 24.821-21.355 39.76-24.851 4.302-1.008 6.974-5.312 5.966-9.614z" fill="#9ceb63"/><path d="m314.005 135.837c14.742-5.237 25.372 14.673 12.767 23.94-7.125 5.238-12.822 12.467-16.227 20.995-.95 2.37-3.57 3.65-5.99 2.85-10.375-3.441-20.873-4.17-31.008-1.719-5.728 1.385-11.776-1.011-14.825-6.054-2.727-4.511-6.621-8.347-11.417-10.992 12.1-7.61 25.458-8.543 38.548-4.203 1.98.66 4.135-.391 4.905-2.331 4.187-10.477 12.649-18.721 23.247-22.486z" fill="#e0b7a3"/><path d="m416.886 165.562c-4.17.22-8.34 1.61-12 4.26l-90.7 65.8c-5.03 3.65-10.88 5.99-17.04 6.82l-104.98 14.14 57.61-39.42c6.42-4.28 10.74-10.81 12.5-18.02.01-.03.02-.07.02-.1 3.404-13.87-3.449-28.002-14.99-34.185 0-.084 5.372-3.693 13.151-5.595 2.961-.724 6.078.372 8.021 2.721 24.757 29.927 3.835 55.542-6.598 65.412-1.412 1.336-.284 3.693 1.642 3.433l31.483-4.246c3.53-.47 6.908-1.823 9.78-3.91 98.173-71.351 92.013-66.996 95.867-68.957 3.189-1.623 7.054-.936 9.518 1.658 3.991 4.2 6.046 8.393 6.694 9.789z" fill="#a07765"/><path d="m192.166 256.582 18.578-2.501c4.178-.563 6.272 4.886 2.792 7.266l-33.59 22.975c-3.45 2.36-8.13 1.67-10.75-1.58-2.92-3.64-2.13-8.99 1.72-11.62z" fill="#ffd9ad"/><path d="m226.218 409.002h-165.212c-10.223 0-18.51 8.287-18.51 18.51v25c0 6.346-5.144 11.49-11.49 11.49-10.223 0-18.51-8.287-18.51-18.51v-37.98c0-10.223 8.287-18.51 18.51-18.51h194.98c14.193 0 13.1 20 .232 20z" fill="#ff8c95"/><g fill="#fff3e4"><path d="m413.837 199.191-73.651 53.431c-5.03 3.65-10.88 5.99-17.04 6.82l-60.184 8.106c-11.21 1.51-16.83-13.107-7.496-19.496l41.68-5.61c6.16-.83 12.01-3.17 17.04-6.82l82.605-59.927c15.568-11.294 32.564 12.238 17.046 23.496z"/><path d="m244.972 163.696c7.442 3.322 7.295 13.845-.031 17.415-.048.024-87.315 43.051-87.315 43.051-34.1 17.91-58.59 49.92-66.95 87.52-5.534 24.844-11.603 52.262-15.686 71.028-.8 3.677-4.053 6.292-7.815 6.292h-22.949c0-2.808 19.796-91.381 20.45-94.32 8.36-37.6 32.85-69.61 66.95-87.52l87.17-42.98c8.487-4.184 18.065-4.107 26.176-.486z"/></g></svg>