<svg id="Layer_1" enable-background="new 0 0 471.998 471.998" height="512" viewBox="0 0 471.998 471.998" width="512" xmlns="http://www.w3.org/2000/svg"><path d="m402.223 299.64c-1.875-4.001-.151-8.764 3.85-10.639 30.328-14.213 49.925-45.037 49.925-78.526v-41.9c0-47.795-38.889-86.68-86.69-86.68-33.454 0-64.267 19.572-78.499 49.862-1.88 4-6.649 5.715-10.643 3.839-3.999-1.879-5.717-6.644-3.838-10.643 16.856-35.876 53.354-59.058 92.979-59.058 56.624 0 102.69 46.062 102.69 102.68v41.9c0 39.668-23.212 76.179-59.136 93.014-4.009 1.88-8.768.142-10.638-3.849z" fill="#9ceb63"/><path d="m419.488 374.605c-5.936-70.712-23.124-168.443-51.11-233.77-3.56-8.31-11.78-13.65-20.82-13.65h-158.56c-9.04 0-17.26 5.34-20.82 13.65-13.75 32.12-24.9 72.04-33.39 112.76l-.14-.03c-28.909-14.908-49.002-41.774-55.56-73.77l9.91-1.13c7.37-.84 12.66-7.5 11.82-14.86l-2.32-20.3c-.84-7.36-7.49-12.65-14.86-11.81l-71.74 8.18c-7.36.83-12.65 7.489-11.81 14.849l2.31 20.301c.84 7.36 7.49 12.65 14.86 11.81l11.9-1.35c13.03 58.7 45.51 110.62 92.22 147.83.302.034-2.042 14.257-4.31 41.29-1.04 12.36 8.03 23.25 20.35 24.56 86.97 9.25 174.69 9.25 261.71 0 12.33-1.31 21.39-12.2 20.36-24.56z" fill="#befa91"/><path d="m100.818 163.805c.84 7.36-4.45 14.02-11.82 14.86l-71.74 8.17c-7.37.84-14.02-4.45-14.86-11.81l-2.31-20.301c-.84-7.36 4.45-14.019 11.81-14.849l71.74-8.18c7.37-.84 14.02 4.45 14.86 11.81z" fill="#cbe3fa"/><path d="m301.308 242.905c17.236 17.768 18.148 46.891-1.43 65.63-17.72 16.96-45.68 16.92-63.44 0-18.58-17.69-19.3-47.2-1.44-65.62 8.55-8.81 16.59-18.08 24.11-27.78 4.59-5.92 13.52-5.92 18.11 0 7.5 9.69 15.55 18.96 24.09 27.77z" fill="#eef7ff"/><path d="m253.931 298.075c2.975 10.121-9.36 18.209-17.493 10.46-18.58-17.69-19.3-47.2-1.44-65.62 8.547-8.807 16.584-18.073 24.101-27.768 4.591-5.921 13.527-5.932 18.119-.012 1.498 1.932 3.016 3.848 4.556 5.748 3.173 3.913 3.214 9.523-.011 13.393-5.35 6.422-10.939 12.634-16.765 18.638-12.006 12.384-15.598 29.749-11.067 45.161z" fill="#fff"/><path d="m348.687 127.213c12.831.637 12.104 19.972-.743 19.972h-118.946c-9.04 0-17.26 5.34-20.82 13.65-29.9 69.847-46.372 177.529-50.121 221.423-.858 10.042-9.687 18.071-20.639 16.907-12.32-1.309-21.39-12.2-20.35-24.56 5.949-70.903 23.17-168.502 51.11-233.77 3.56-8.31 11.78-13.65 20.82-13.65 0 0 159.314.01 159.689.028z" fill="#daffbf"/><path d="m85.718 146.968-51.82 5.907c-7.362.839-12.649 7.487-11.81 14.849l1.301 11.412c.435 3.82-2.311 7.268-6.131 7.699-7.373.831-14.025-4.468-14.863-11.84l-2.307-20.272c-.838-7.361 4.449-14.01 11.81-14.849l71.74-8.18c11.031-1.256 11.96 14.148 2.08 15.274z" fill="#eef7ff"/><path d="m121.891 306.143c1.853 1.804 2.743 4.376 2.365 6.934-1.01 6.837-1.938 13.598-2.789 20.248l-.09-.01c-46.71-37.21-79.19-89.13-92.22-147.83l14.964-1.703c3.894-.443 7.517 2.014 8.576 5.788 12.484 44.52 36.352 84.606 69.194 116.573z" fill="#daffbf"/><g fill="#9ceb63"><path d="m73.859 196.495-33.898 3.863c-3.951.45-7.652-2.065-8.649-5.915-.769-2.968-1.487-5.955-2.154-8.957l49.93-5.69c.425 2.059.941 4.271 1.572 6.61 1.282 4.747-1.915 9.532-6.801 10.089z"/><path d="m134.788 253.595c-5.786 27.667-11.642 65.483-13.32 79.73-.436-.048-8.726-7.171-11.245-9.42-2.006-1.79-3.005-4.452-2.625-7.113 2.775-19.441 6.227-39.942 10.382-60.54 1.079-5.351 7.116-8.079 11.835-5.333.156.091 4.475 2.57 4.973 2.676z"/></g></svg>